<?xml version="1.0" encoding="utf-8"?>
<!-- Generator: Adobe Illustrator 19.1.0, SVG Export Plug-In . SVG Version: 6.00 Build 0)  -->
<svg version="1.1" id="Ebene_1" xmlns="http://www.w3.org/2000/svg" xmlns:xlink="http://www.w3.org/1999/xlink" x="0px" y="0px"
	 viewBox="0 0 370 330" style="enable-background:new 0 0 370 330;" xml:space="preserve">
<style type="text/css">
	.st0{fill:none;stroke:#C6C7C8;stroke-width:0.721;}
	.st1{fill:#56AB27;}
	.st2{fill:#CFD1D2;}
	.st3{fill:#FFFFFF;}
	.st4{font-family:'OpenSans';}
	.st5{font-size:12px;}
	.st6{fill:#87888A;}
</style>
<line class="st0" x1="60.4" y1="69.5" x2="312.6" y2="264"/>
<line class="st0" x1="312.6" y1="66.9" x2="312.6" y2="262.7"/>
<line class="st0" x1="58.2" y1="66.9" x2="58.2" y2="262.7"/>
<line class="st0" x1="57.7" y1="66.2" x2="313.9" y2="66.2"/>
<line class="st0" x1="57.7" y1="264.5" x2="313.9" y2="264.5"/>
<g>
	<path class="st1" d="M58.4,81.3c8.3,0,15.1-6.8,15.1-15.1c0-8.3-6.8-15.1-15.1-15.1s-15.1,6.8-15.1,15.1
		C43.3,74.5,50.1,81.3,58.4,81.3"/>
	<path class="st1" d="M314.6,279.8c8.3,0,15.1-6.8,15.1-15.1c0-8.3-6.8-15.1-15.1-15.1c-8.3,0-15.1,6.8-15.1,15.1
		C299.5,273,306.3,279.8,314.6,279.8"/>
</g>
<line class="st0" x1="312.6" y1="69.5" x2="60.4" y2="264"/>
<g>
	<path class="st2" d="M311.9,172.8c7,0,12.7-5.7,12.7-12.7c0-7-5.7-12.7-12.7-12.7c-7,0-12.7,5.7-12.7,12.7
		C299.2,167.1,304.9,172.8,311.9,172.8"/>
</g>
<g>
	<path d="M314.3,163.4l-0.8-2.3h-3.1l-0.8,2.3h-1.4l3-8.1h1.4l3,8.1H314.3z M313.1,160l-0.8-2.2c-0.1-0.1-0.1-0.4-0.2-0.7
		c-0.1-0.3-0.2-0.6-0.2-0.7c-0.1,0.5-0.2,1-0.4,1.5l-0.7,2.1H313.1z"/>
</g>
<g>
	<path class="st2" d="M57.1,172.8c7,0,12.7-5.7,12.7-12.7c0-7-5.7-12.7-12.7-12.7s-12.7,5.7-12.7,12.7
		C44.3,167.1,50,172.8,57.1,172.8"/>
</g>
<g>
	<path d="M54.4,155.3h2.4c1.1,0,1.9,0.2,2.4,0.5c0.5,0.3,0.7,0.8,0.7,1.5c0,0.5-0.1,0.9-0.4,1.2c-0.2,0.3-0.6,0.5-1.1,0.6v0.1
		c0.6,0.1,1,0.3,1.3,0.6c0.3,0.3,0.4,0.7,0.4,1.3c0,0.7-0.3,1.3-0.8,1.7c-0.5,0.4-1.2,0.6-2.1,0.6h-2.9V155.3z M55.7,158.6H57
		c0.6,0,1-0.1,1.2-0.3c0.3-0.2,0.4-0.5,0.4-0.9c0-0.4-0.1-0.7-0.4-0.8s-0.7-0.3-1.3-0.3h-1.1V158.6z M55.7,159.7v2.6h1.4
		c0.6,0,1-0.1,1.3-0.3c0.3-0.2,0.4-0.5,0.4-1c0-0.4-0.1-0.7-0.4-0.9c-0.3-0.2-0.7-0.3-1.3-0.3H55.7z"/>
</g>
<g>
	<path class="st2" d="M189.9,78.9c7,0,12.7-5.7,12.7-12.7c0-7-5.7-12.7-12.7-12.7c-7,0-12.7,5.7-12.7,12.7
		C177.1,73.2,182.8,78.9,189.9,78.9"/>
</g>
<g>
	<path d="M190.8,62.4c-0.8,0-1.4,0.3-1.8,0.8c-0.4,0.5-0.7,1.3-0.7,2.2c0,1,0.2,1.7,0.6,2.3c0.4,0.5,1,0.8,1.8,0.8
		c0.3,0,0.7,0,1-0.1c0.3-0.1,0.7-0.2,1-0.3v1.1c-0.6,0.2-1.4,0.4-2.2,0.4c-1.2,0-2.1-0.4-2.7-1.1c-0.6-0.7-1-1.7-1-3.1
		c0-0.8,0.2-1.6,0.5-2.2c0.3-0.6,0.8-1.1,1.3-1.5c0.6-0.3,1.3-0.5,2.1-0.5c0.8,0,1.6,0.2,2.3,0.5l-0.5,1.1c-0.3-0.1-0.6-0.2-0.9-0.3
		C191.4,62.5,191.1,62.4,190.8,62.4z"/>
</g>
<g>
	<path class="st2" d="M189.9,279.2c7,0,12.7-5.7,12.7-12.7c0-7-5.7-12.7-12.7-12.7c-7,0-12.7,5.7-12.7,12.7
		C177.1,273.5,182.8,279.2,189.9,279.2"/>
</g>
<g>
	<path d="M193.4,266.7c0,1.3-0.4,2.4-1.1,3.1s-1.8,1.1-3.2,1.1h-2.3v-8.1h2.5c1.3,0,2.3,0.3,3,1C193,264.4,193.4,265.4,193.4,266.7z
		 M192,266.7c0-1.9-0.9-2.9-2.7-2.9h-1.1v5.9h0.9C191,269.7,192,268.7,192,266.7z"/>
</g>
<g>
	<path class="st2" d="M138.9,217.5c7,0,12.7-5.7,12.7-12.7c0-7-5.7-12.7-12.7-12.7c-7,0-12.7,5.7-12.7,12.7
		C126.1,211.8,131.9,217.5,138.9,217.5"/>
</g>
<g>
	<path d="M141.4,208.1h-4.6V200h4.6v1.1h-3.3v2.2h3.1v1.1h-3.1v2.5h3.3V208.1z"/>
</g>
<g>
	<path class="st2" d="M234.1,217.5c7,0,12.7-5.7,12.7-12.7c0-7-5.7-12.7-12.7-12.7c-7,0-12.7,5.7-12.7,12.7
		C221.4,211.8,227.1,217.5,234.1,217.5"/>
</g>
<g>
	<path d="M233.5,208.1h-1.3V200h4.6v1.1h-3.3v2.5h3.1v1.1h-3.1V208.1z"/>
</g>
<g>
	<path class="st3" d="M316.1,271.2h-1.9v-7.8c0-0.9,0-1.7,0.1-2.2c-0.1,0.1-0.3,0.3-0.5,0.4c-0.2,0.2-0.8,0.7-1.8,1.5l-1-1.2
		l3.5-2.8h1.6V271.2z"/>
</g>
<g>
	<path class="st1" d="M314.6,81.1c8.3,0,15-6.7,15-15s-6.7-15-15-15c-8.3,0-15,6.7-15,15S306.3,81.1,314.6,81.1"/>
	<path class="st1" d="M58.4,279.8c8.3,0,15.1-6.8,15.1-15.1c0-8.3-6.8-15.1-15.1-15.1s-15.1,6.8-15.1,15.1
		C43.3,273,50.1,279.8,58.4,279.8"/>
</g>
<g>
	<path class="st3" d="M318.5,72.1h-8.1v-1.5l3.1-3.1c0.9-0.9,1.5-1.6,1.8-2c0.3-0.4,0.5-0.8,0.7-1.1c0.1-0.3,0.2-0.7,0.2-1.1
		c0-0.5-0.2-1-0.5-1.3c-0.3-0.3-0.8-0.5-1.4-0.5c-0.5,0-0.9,0.1-1.3,0.3c-0.4,0.2-0.9,0.5-1.5,0.9l-1-1.3c0.7-0.6,1.3-1,1.9-1.2
		c0.6-0.2,1.3-0.4,2-0.4c1.1,0,2,0.3,2.7,0.9c0.7,0.6,1,1.4,1,2.4c0,0.5-0.1,1.1-0.3,1.5s-0.5,1-0.9,1.5s-1.1,1.2-2,2.1l-2.1,2v0.1
		h5.7V72.1z"/>
</g>
<g>
	<path class="st3" d="M61.9,261c0,0.8-0.2,1.4-0.7,1.9c-0.4,0.5-1.1,0.8-1.9,1v0.1c1,0.1,1.7,0.4,2.2,0.9c0.5,0.5,0.7,1.1,0.7,1.9
		c0,1.2-0.4,2-1.2,2.7s-2,0.9-3.5,0.9c-1.3,0-2.5-0.2-3.4-0.6V268c0.5,0.3,1,0.4,1.6,0.6s1.1,0.2,1.6,0.2c0.9,0,1.6-0.2,2.1-0.5
		c0.5-0.3,0.7-0.9,0.7-1.6c0-0.6-0.3-1.1-0.8-1.4c-0.5-0.3-1.3-0.5-2.4-0.5h-1v-1.6h1.1c1.9,0,2.9-0.7,2.9-2c0-0.5-0.2-0.9-0.5-1.2
		s-0.8-0.4-1.5-0.4c-0.5,0-0.9,0.1-1.3,0.2c-0.4,0.1-0.9,0.4-1.5,0.8l-0.9-1.3c1.1-0.8,2.4-1.2,3.8-1.2c1.2,0,2.2,0.3,2.8,0.8
		C61.6,259.4,61.9,260.1,61.9,261z"/>
</g>
<g>
	<path class="st3" d="M62.8,69.4h-1.6v2.6h-1.9v-2.6h-5.5V68l5.5-7.9h1.9v7.8h1.6V69.4z M59.3,67.8v-3c0-1.1,0-2,0.1-2.6h-0.1
		c-0.2,0.4-0.4,0.8-0.7,1.3l-3,4.3H59.3z"/>
</g>
<text transform="matrix(1 0 0 1 179.395 45.3643)" class="st4 st5">202</text>
<text transform="matrix(1 0 0 1 179.395 292.8282)" class="st4 st5">202</text>
<text transform="matrix(1 0 0 1 16.5747 163.1739)" class="st4 st5">146</text>
<text transform="matrix(1 0 0 1 328.457 163.1739)" class="st4 st5">146</text>
<text transform="matrix(1 0 0 1 225.4443 182.8438)" class="st4 st5">256</text>
<text transform="matrix(1 0 0 1 128.2016 182.8438)" class="st4 st5">256</text>
<g>
	<path class="st6" d="M57.6,104.2c20.9,0.1,38.3-16.6,38.4-37.9c0.1-17.7-11.8-32.6-27.9-37.2l-0.1,8.4C79.7,42.1,88.1,53,88,66.2
		c-0.1,16.5-13.9,30-30.3,29.9c-16.5-0.1-30-13.9-29.9-30.3c0.1-12.1,7-22.1,17.1-27.2L56,49.9l0.2-26.1l-26.1-0.2l9.2,9.3
		c-11.7,6.3-19.4,18.7-19.5,32.8C19.6,86.7,36.7,104.1,57.6,104.2"/>
	<path class="st6" d="M314.5,226.2c-20.9-0.1-38.3,16.6-38.4,37.9c-0.1,17.7,11.8,32.6,27.9,37.2l0.1-8.4
		c-11.6-4.5-20-15.4-19.9-28.7c0.1-16.5,13.9-30,30.3-29.9c16.5,0.1,30,13.9,29.9,30.3c-0.1,12.1-7,22.1-17.1,27.2l-11.2-11.3
		l-0.2,26.1l26.1,0.2l-9.2-9.3c11.7-6.3,19.4-18.7,19.5-32.8C352.5,243.8,335.4,226.4,314.5,226.2"/>
	<path class="st1" d="M314.5,104.9c-20.9,0.1-38.3-16.6-38.4-37.9c-0.1-17.7,11.8-32.6,27.9-37.2l0.1,8.4
		c-11.6,4.5-20,15.4-19.9,28.7c0.1,16.5,13.9,30,30.3,29.9c16.5-0.1,30-13.9,29.9-30.3c-0.1-12.1-7-22.1-17.1-27.2l-11.2,11.3
		l-0.2-26.1l26.1-0.2l-9.2,9.3c11.7,6.3,19.4,18.7,19.5,32.8C352.5,87.3,335.4,104.7,314.5,104.9"/>
	<path class="st1" d="M57.6,227.3c20.9-0.1,38.3,16.6,38.4,37.9c0.1,17.7-11.8,32.6-27.9,37.2l-0.1-8.4c11.6-4.5,20-15.4,19.9-28.7
		c-0.1-16.5-13.9-30-30.3-29.9c-16.5,0.1-30,13.9-29.9,30.3c0.1,12.1,7,22.1,17.1,27.2L56,281.5l0.2,26.1L30,307.8l9.2-9.3
		c-11.7-6.3-19.4-18.7-19.5-32.8C19.5,244.8,36.7,227.4,57.6,227.3"/>
</g>
</svg>
